<?xml version="1.0" encoding="UTF-8"?>
<svg id="Layer_1" data-name="Layer 1" xmlns="http://www.w3.org/2000/svg" viewBox="0 0 1024 1024">
  <defs>
    <style>
      .cls-1 {
        fill: #fff;
      }
    </style>
  </defs>
  <path class="cls-1" d="M1024,0v1024H0V0h1024ZM357.63,299.38c-76.11-67.66-155.28-133.09-242.59-185.95l-2.04,1.09c.65,1.93,1.21,3.91,1.09,5.98-4.48,82.24,63.01,181.47,111.92,243.98,45.18,57.74,99.94,119.4,152.45,170.55,2.67,2.6,15.56,12.61,15.56,15.47-12.02,13.59-25.46,26.66-38.51,39.53-61.16,60.33-123.29,120.17-185.51,179.49-14.61,13.93-46.1,37.53-53.19,54.81-21.76,53.02,55.83,89.88,97.69,70.69,22.45-10.29,14.43-22.87,20.2-41.8,9.22-30.23,36.28-45.96,58.3-66.7,30.24-28.48,58.9-58.46,86.5-89.5,19.68-22.13,40.72-51.7,61.45-71.55,4.64-4.44,12.98-10.7,19.53-10.55,19.44.44,41.83,32.5,56.13,44.01,18-11.73,38.85-42.06,63.27-30.33,12.84,6.17,40.27,42.82,51.58,55.42,31.88,35.49,64.28,69.26,98.99,102.01,24.21,22.85,54.8,40.36,61.27,75.73,2.56,13.96-1.99,21.91,12.95,31.05,39.52,24.17,122.61-12.18,102.32-67.32-8.29-22.55-58.52-61.54-78.04-79.96-52.89-49.95-105.74-100.46-157.51-151.49-14.35-14.15-29.06-28.55-42.4-43.39,72.56-71,144.18-145.05,202.74-228.32,39.74-56.5,77.28-128.4,80.17-198.83.43-10.43,1.22-12.47-8.29-7.3-38.52,20.95-78.8,51.51-113.59,78.41-72.97,56.42-138.88,118.24-207.09,179.91-24.36,22.02-49.07,43.64-73.65,65.42-1.6.29-19.75-19.05-22.84-21.96-42.43-39.91-85.36-79.88-128.9-118.59Z"/>
  <path d="M357.63,299.38c43.54,38.71,86.47,78.68,128.9,118.59,3.09,2.9,21.24,22.25,22.84,21.96,24.58-21.77,49.29-43.39,73.65-65.42,68.21-61.67,134.12-123.49,207.09-179.91,34.79-26.9,75.07-57.46,113.59-78.41,9.51-5.17,8.72-3.13,8.29,7.3-2.89,70.43-40.43,142.32-80.17,198.83-58.57,83.27-130.18,157.32-202.74,228.32,13.34,14.84,28.05,29.24,42.4,43.39,51.77,51.03,104.62,101.54,157.51,151.49,19.51,18.43,69.74,57.42,78.04,79.96,20.28,55.14-62.8,91.49-102.32,67.32-14.94-9.14-10.39-17.09-12.95-31.05-6.47-35.37-37.06-52.88-61.27-75.73-34.71-32.75-67.1-66.52-98.99-102.01-11.31-12.59-38.74-49.25-51.58-55.42-24.41-11.73-45.27,18.61-63.27,30.33-14.3-11.51-36.7-43.58-56.13-44.01-6.56-.15-14.89,6.11-19.53,10.55-20.73,19.84-41.78,49.42-61.45,71.55-27.6,31.04-56.26,61.02-86.5,89.5-22.02,20.74-49.08,36.47-58.3,66.7-5.77,18.92,2.25,31.51-20.2,41.8-41.86,19.18-119.46-17.68-97.69-70.69,7.09-17.27,38.59-40.88,53.19-54.81,62.22-59.32,124.35-119.16,185.51-179.49,13.05-12.87,26.49-25.94,38.51-39.53,0-2.86-12.89-12.87-15.56-15.47-52.52-51.15-107.27-112.8-152.45-170.55-48.91-62.51-116.41-161.74-111.92-243.98.11-2.07-.44-4.06-1.09-5.98l2.04-1.09c87.31,52.86,166.47,118.29,242.59,185.95ZM743.38,405.37c64.09-73.46,134.84-165.25,153.32-263.17.46-2.44,1.32-5.85.8-8.2-45.24,26.72-86.44,59.76-126.98,93.02-126.34,103.65-242.98,221.96-360,336-2.43,2.37-13.94,10.18-12.08,13.95l33.19,32.92c19.13-13.79,36.46-17.48,57.27-4.31,12.46,7.89,20.74,18.98,31.44,28.33l6.17-4.89c72.13-74.7,148.62-145.44,216.86-223.65ZM170.64,165.38c-13.61-9.92-28.23-18.88-42.15-28.37,3.26,37.78,18.97,75.59,37.16,108.84,49.25,90.02,126.4,174.11,196.83,248.17,14.45,15.2,30.14,29.24,43.98,45.05l2.52.5,86.58-87.58c-25.58-21.98-48.68-46.71-73.04-70-78.36-74.93-164.2-152.64-251.89-216.6ZM590.86,613.91l37.12-37.41-9.48-9.48c-10.63,16.73-27.15,28.11-40.48,42.48l12.84,4.41ZM346.35,665.65c16.09,14.85,37.72-12.54,18.99-24.49-16.52-10.54-32.89,11.66-18.99,24.49ZM664.77,638.19c-24.13,3.34-12.51,40.42,8.78,29.85,16.1-8,7.52-32.11-8.78-29.85ZM759.76,728.18c-20.06,2.3-17.34,35.73,4.65,32.73,20.32-2.77,16.93-35.2-4.65-32.73ZM272.65,757.65c5.14-4.61,7.02-12.2,4.86-18.67-5.74-17.19-35.7-12.05-31.07,10.08,2.43,11.6,17.66,16.27,26.21,8.59ZM181.76,809.21c-22.71,3.34-14.86,39.51,8.22,30.26,16.63-6.66,9.65-32.89-8.22-30.26ZM835.72,810.23c-21.77,4.51-9.95,39.09,10.59,28.59,15.94-8.15,8.27-32.49-10.59-28.59Z"/>
  <path class="cls-1" d="M743.38,405.37c-68.23,78.21-144.73,148.95-216.86,223.65l-6.17,4.89c-10.7-9.35-18.98-20.44-31.44-28.33-20.81-13.17-38.14-9.48-57.27,4.31l-33.19-32.92c-1.86-3.76,9.64-11.57,12.08-13.95,117.02-114.04,233.66-232.35,360-336,40.54-33.26,81.74-66.3,126.98-93.02.52,2.35-.34,5.77-.8,8.2-18.49,97.92-89.24,189.71-153.32,263.17Z"/>
  <path class="cls-1" d="M170.64,165.38c87.68,63.96,173.53,141.67,251.89,216.6,24.36,23.3,47.46,48.02,73.04,70l-86.58,87.58-2.52-.5c-13.84-15.81-29.53-29.85-43.98-45.05-70.44-74.05-147.59-158.14-196.83-248.17-18.19-33.25-33.9-71.06-37.16-108.84,13.92,9.49,28.54,18.44,42.15,28.37Z"/>
  <path class="cls-1" d="M272.65,757.65c-8.55,7.67-23.78,3.01-26.21-8.59-4.63-22.13,25.33-27.27,31.07-10.08,2.16,6.47.28,14.06-4.86,18.67Z"/>
  <path class="cls-1" d="M759.76,728.18c21.59-2.48,24.97,29.95,4.65,32.73-21.99,3-24.71-30.43-4.65-32.73Z"/>
  <path class="cls-1" d="M181.76,809.21c17.87-2.63,24.85,23.6,8.22,30.26-23.08,9.25-30.93-26.92-8.22-30.26Z"/>
  <path class="cls-1" d="M664.77,638.19c16.3-2.26,24.88,21.86,8.78,29.85-21.29,10.57-32.9-26.51-8.78-29.85Z"/>
  <path class="cls-1" d="M346.35,665.65c-13.9-12.83,2.47-35.03,18.99-24.49,18.73,11.95-2.9,39.33-18.99,24.49Z"/>
  <path class="cls-1" d="M835.72,810.23c18.86-3.9,26.54,20.43,10.59,28.59-20.54,10.5-32.37-24.08-10.59-28.59Z"/>
  <path class="cls-1" d="M590.86,613.91l-12.84-4.41c13.33-14.37,29.85-25.75,40.48-42.48l9.48,9.48-37.12,37.41Z"/>
</svg>